<svg width="160" height="160" viewBox="0 0 160 160" fill="none" xmlns="http://www.w3.org/2000/svg">
<circle cx="80" cy="80" r="80" fill="#3072ED"/>
<path d="M107.541 103.847V108.321C107.541 108.87 107.577 109.406 107.649 109.927C107.72 110.447 107.779 110.84 107.83 111.108H107.705C107.446 110.726 107.128 110.378 106.757 110.072C106.385 109.763 105.945 109.518 105.432 109.334C104.922 109.151 104.333 109.059 103.664 109.059C102.058 109.059 100.759 109.674 99.7619 110.902C98.7652 112.132 98.2681 113.942 98.2681 116.333C98.2681 118.725 98.76 120.494 99.7414 121.714C100.723 122.934 101.996 123.544 103.562 123.544C104.238 123.544 104.83 123.452 105.33 123.269C105.832 123.085 106.265 122.837 106.629 122.526C106.993 122.214 107.295 121.865 107.538 121.482H107.702L108.443 123.294H111.379V103.847H107.541ZM107.805 116.77C107.779 118.021 107.551 118.955 107.121 119.575C106.69 120.195 105.952 120.507 104.907 120.507C104.028 120.507 103.349 120.162 102.867 119.471C102.386 118.779 102.147 117.75 102.147 116.385C102.147 115.019 102.386 113.972 102.862 113.247C103.339 112.523 104 112.16 104.845 112.16C105.983 112.16 106.762 112.52 107.18 113.242C107.597 113.962 107.807 115.004 107.807 116.362V116.775L107.805 116.77Z" fill="white"/>
<path d="M92.7643 115.894C92.7643 116.887 92.6746 117.725 92.4952 118.414C92.3159 119.1 92.0033 119.621 91.56 119.976C91.1167 120.331 90.5069 120.507 89.728 120.507C88.949 120.507 88.3674 120.254 88.0087 119.744C87.65 119.236 87.4681 118.48 87.4681 117.482V109.319H83.6426V118.432C83.6426 119.631 83.8501 120.606 84.2627 121.357C84.6752 122.107 85.2568 122.659 85.9999 123.013C86.7429 123.368 87.6192 123.544 88.6211 123.544C89.2053 123.544 89.7715 123.473 90.3147 123.332C90.8579 123.192 91.355 122.97 91.8086 122.669C92.2595 122.368 92.6362 121.982 92.9385 121.507H93.1384L93.6534 123.294H96.5897V109.319H92.7643V115.894Z" fill="white"/>
<path d="M78.7716 109.896C77.7544 109.337 76.5911 109.059 75.2767 109.059C73.8623 109.059 72.6452 109.337 71.6255 109.896C70.6057 110.455 69.819 111.272 69.2656 112.346C68.7147 113.421 68.438 114.733 68.438 116.282C68.438 117.449 68.602 118.483 68.9325 119.381C69.263 120.282 69.7319 121.043 70.3366 121.663C70.9439 122.283 71.6588 122.753 72.4812 123.07C73.3063 123.386 74.2108 123.544 75.1973 123.544C76.2504 123.544 77.1984 123.386 78.0388 123.07C78.8792 122.753 79.5992 122.283 80.1963 121.663C80.7933 121.043 81.2493 120.282 81.5645 119.381C81.8797 118.48 82.036 117.449 82.036 116.282C82.036 114.733 81.7464 113.421 81.1648 112.346C80.5832 111.272 79.7837 110.455 78.7691 109.896H78.7716ZM77.8313 118.595C77.634 119.22 77.3239 119.69 76.9037 120.007C76.481 120.323 75.9326 120.481 75.2536 120.481C74.5746 120.481 74.0109 120.323 73.5856 120.007C73.1602 119.69 72.8451 119.22 72.6452 118.595C72.4454 117.97 72.3429 117.199 72.3429 116.282C72.3429 114.899 72.5709 113.863 73.027 113.171C73.4831 112.479 74.2159 112.135 75.228 112.135C75.9147 112.135 76.4707 112.288 76.896 112.597C77.3214 112.905 77.634 113.365 77.8313 113.977C78.0286 114.59 78.1259 115.358 78.1259 116.282C78.1259 117.206 78.0286 117.97 77.8313 118.595Z" fill="white"/>
<path d="M66.7623 103.847H62.9368V123.294H66.7623V103.847Z" fill="white"/>
<path d="M55.2194 112.602C55.6626 112.29 56.2186 112.132 56.8874 112.132C57.405 112.132 57.9251 112.209 58.4427 112.364C58.9603 112.517 59.5214 112.717 60.1235 112.959L61.2535 110.008C60.7257 109.751 60.1107 109.528 59.4035 109.34C58.6964 109.153 57.8585 109.059 56.8874 109.059C55.5243 109.059 54.3251 109.314 53.2925 109.822C52.2599 110.33 51.4528 111.124 50.8712 112.203C50.2895 113.283 50 114.677 50 116.385C50 118.092 50.2537 119.389 50.7661 120.446C51.276 121.505 52.0216 122.286 53.0004 122.789C53.9792 123.294 55.163 123.544 56.5517 123.544C57.5305 123.544 58.3402 123.463 58.9808 123.302C59.6213 123.138 60.2337 122.876 60.8179 122.508V119.246C60.2311 119.629 59.629 119.927 59.0115 120.139C58.3914 120.351 57.6843 120.458 56.89 120.458C56.2545 120.458 55.7139 120.31 55.2706 120.014C54.8273 119.718 54.4891 119.266 54.2534 118.659C54.0202 118.051 53.9023 117.283 53.9023 116.359C53.9023 115.435 54.01 114.633 54.2277 114.008C54.4455 113.383 54.7761 112.916 55.2194 112.602Z" fill="white"/>
<path d="M116.261 55.7871C112.84 49.439 106.114 45.1227 98.3759 45.1227C95.0218 45.1227 91.86 45.9395 89.0723 47.374C84.2219 40.5001 76.2045 36 67.1264 36C54.561 36 44.0173 44.6147 41.1142 56.2363C29.0101 58.6 24.6183 70.533 25.0257 77.657C25.4562 85.1716 31.4493 97 48.0426 97H115.33C128.439 97 136.81 87.4995 137.497 77.657C138.27 66.5791 129.185 55.5752 116.258 55.7871H116.261Z" fill="white"/>
<path d="M112.294 64.2461H116.599V72.9298H116.65C117.537 71.6612 118.777 71.0256 120.399 71.0256C124.122 71.0256 125.946 74.4102 125.946 77.9812C125.946 81.8432 124.199 85.5443 120.071 85.5443C118.551 85.5443 117.285 84.8577 116.45 83.561H116.399V85.1487H112.297V64.2487L112.294 64.2461ZM116.448 78.1395C116.448 80.5465 117.106 82.1061 119.056 82.1061C121.006 82.1061 121.639 80.0181 121.639 78.1395C121.639 76.3935 120.98 74.4638 119.082 74.4638C117.916 74.4638 116.448 75.3113 116.448 78.1395Z" fill="#3071F2"/>
<path d="M102.091 79.3825C102.168 81.2612 103.206 82.5017 105.03 82.5017C106.068 82.5017 107.083 81.9989 107.488 80.9957H111.515C110.731 84.1685 107.918 85.5443 104.982 85.5443C100.703 85.5443 97.7893 82.8463 97.7893 78.2467C97.7893 74.0427 101.005 71.0282 104.882 71.0282C109.591 71.0282 111.948 74.7293 111.746 79.3851H102.096L102.091 79.3825ZM107.434 76.8709C107.357 75.3368 106.319 74.0682 104.877 74.0682C103.357 74.0682 102.345 75.2041 102.091 76.8709H107.436H107.434Z" fill="#3071F2"/>
<path d="M86.7869 71.4238H89.7975L91.6706 80.3091H91.7218L93.9254 71.4238H98.2812L94.179 85.1461H89.8232L88.1192 77.5703L86.7869 71.4238Z" fill="#3071F2"/>
<path d="M90.0742 72.7383L89.8231 85.1461L88.0577 77.2869L89.49 71.4238H89.7821L90.0742 72.7383Z" fill="#434445"/>
<path d="M89.7821 71.4238H86.7688L84.8958 80.3091H84.8446L82.641 71.4238H78.2852L82.3874 85.1461H86.7458L88.4471 77.5703L89.7821 71.4238Z" fill="#3071F2"/>
<path d="M65.3713 71.4238H69.5504V73.3025H69.6017C70.3857 71.9011 72.1588 71.0282 73.7295 71.0282C78.111 71.0282 78.4645 74.3592 78.4645 76.3425V85.1487H74.1599V78.5121C74.1599 76.6335 74.3624 74.7319 72.0076 74.7319C70.3857 74.7319 69.6785 76.1587 69.6785 77.6673V85.1512H65.3739V71.4264L65.3713 71.4238Z" fill="#3071F2"/>
<path d="M57.7742 71.0256C61.8508 71.0256 64.7128 74.1729 64.7128 78.2977C64.7128 82.4226 61.8508 85.5443 57.7742 85.5443C53.6976 85.5443 50.8612 82.4251 50.8612 78.2977C50.8612 74.1703 53.6976 71.0256 57.7742 71.0256ZM57.7742 82.1061C59.7753 82.1061 60.4082 80.0436 60.4082 78.2977C60.4082 76.5518 59.7753 74.4638 57.7742 74.4638C55.7731 74.4638 55.1658 76.5518 55.1658 78.2977C55.1658 80.0436 55.7731 82.1061 57.7742 82.1061Z" fill="#3071F2"/>
<path d="M50.1541 85.1461H46.0519V83.5585H46.0007C45.1654 84.8551 43.8996 85.5418 42.3802 85.5418C38.2524 85.5418 36.5049 81.8406 36.5049 77.9787C36.5049 74.4077 38.3292 71.0231 42.0522 71.0231C43.6741 71.0231 44.9143 71.6586 45.8008 72.9017H45.852V64.2436H50.1567V85.1436L50.1541 85.1461ZM40.8095 78.1395C40.8095 80.0181 41.468 82.1061 43.4435 82.1061C45.5446 82.1061 46.0007 80.0181 46.0007 78.2722C46.0007 76.2889 45.3165 74.4638 43.4435 74.4638C41.468 74.4638 40.8095 76.3935 40.8095 78.1395Z" fill="#3071F2"/>
</svg>
